<?xml version="1.0" standalone="no"?><!DOCTYPE svg PUBLIC "-//W3C//DTD SVG 1.1//EN" "http://www.w3.org/Graphics/SVG/1.1/DTD/svg11.dtd"><svg t="1620438761044" class="icon" viewBox="0 0 1077 1024" version="1.1" xmlns="http://www.w3.org/2000/svg" p-id="1465" width="134.625" height="128" xmlns:xlink="http://www.w3.org/1999/xlink"><defs><style type="text/css"></style></defs><path d="M929.953684 807.612632h-348.375579L147.941053 808.421053h-0.053895c-22.096842 0-40.097684-11.856842-40.097684-26.570106 0-14.874947 17.623579-26.570105 40.097684-26.570105L581.524211 754.526316h348.375578c22.528 0 40.151579 11.695158 40.151579 26.570105s-17.623579 26.516211-40.151579 26.516211zM874.981053 592.842105h-240.909474c-23.120842 0-41.229474-11.856842-41.229474-26.947368s18.108632-26.947368 41.229474-26.947369h240.909474c23.120842 0 41.229474 11.856842 41.229473 26.947369s-18.108632 26.947368-41.229473 26.947368z m0-161.68421h-240.909474C610.950737 431.157895 592.842105 419.301053 592.842105 404.210526s18.108632-26.947368 41.229474-26.947368h240.909474c23.120842 0 41.229474 11.856842 41.229473 26.947368s-18.108632 26.947368-41.229473 26.947369z m0-215.578948h-240.909474C610.950737 215.578947 592.842105 203.722105 592.842105 188.631579s18.108632-26.947368 41.229474-26.947368h240.909474c23.120842 0 41.229474 11.856842 41.229473 26.947368s-18.108632 26.947368-41.229473 26.947368z m-324.338527 15.683369H392.515368v381.413052c0 18.755368-18.863158 34.061474-42.199579 34.061474-23.605895 0-42.199579-14.982737-42.199578-34.061474V231.262316H149.935158C126.329263 231.262316 107.789474 216.333474 107.789474 197.254737s18.539789-34.007579 42.145684-34.007579h188.362105A52.224 52.224 0 0 1 350.315789 161.684211a52.277895 52.277895 0 0 1 12.072422 1.562947h188.254315c23.713684 0 42.199579 14.928842 42.199579 34.007579s-18.539789 34.007579-42.199579 34.007579z" p-id="1466" fill="#333333"></path><path d="M97.495579 1024C43.654737 1024 0 985.842526 0 938.900211V85.045895C0 38.157474 43.708632 0 97.495579 0h883.496421c26.085053 0 50.553263 8.946526 68.985263 25.276632 18.324211 16.168421 28.240842 37.402947 27.917474 59.877052v853.746527c0 46.942316-43.762526 85.099789-97.549474 85.099789H97.549474zM80.842105 80.842105v862.31579h916.210527v-862.31579h-916.210527z" p-id="1467" fill="#333333"></path></svg>