<?xml version="1.0" standalone="no"?><!DOCTYPE svg PUBLIC "-//W3C//DTD SVG 1.1//EN" "http://www.w3.org/Graphics/SVG/1.1/DTD/svg11.dtd"><svg t="1599119699618" class="icon" viewBox="0 0 1024 1024" version="1.1" xmlns="http://www.w3.org/2000/svg" p-id="2390" width="64" height="64" xmlns:xlink="http://www.w3.org/1999/xlink"><defs><style type="text/css"></style></defs><path d="M66.1 128.7V901h892.3V128.7H66.1z m832.3 60v113.5H126.1V188.7h772.3zM410.3 669.9V547.2h204v122.7h-204z m204 60V841h-204V729.9h204z m0-367.8v125h-204v-125h204z m-264 125.1H126.1v-125h224.2v125z m-224.2 60h224.2v122.7H126.1V547.2z m548.2 0h224.2v122.7H674.3V547.2z m0-60v-125h224.2v125H674.3zM126.1 729.9h224.2V841H126.1V729.9z m548.2 111v-111h224.2V841H674.3z" p-id="2391" fill="#2c2c2c"></path></svg>