<?xml version="1.0" standalone="no"?><!DOCTYPE svg PUBLIC "-//W3C//DTD SVG 1.1//EN" "http://www.w3.org/Graphics/SVG/1.1/DTD/svg11.dtd"><svg class="icon" width="64px" height="64.00px" viewBox="0 0 1024 1024" version="1.1" xmlns="http://www.w3.org/2000/svg"><path fill="#2c2c2c" d="M181.33333333 85.33333333C128.59733333 85.33333333 85.33333333 128.59733333 85.33333333 181.33333333v640c0 52.736 43.264 96 96 96h640c52.736 0 96-43.264 96-96v-640c0-52.736-43.264-96-96-96z m0 64H341.33333333v192H149.33333333V181.33333333c0-17.984 14.016-32 32-32zM405.33333333 149.33333333h192v192H405.33333333z m256 0h160c17.984 0 32 14.016 32 32V341.33333333h-192zM149.33333333 405.33333333h192v192H149.33333333z m256 0h192v192H405.33333333z m256 0h192v192h-192z m-512 256h192v192H181.33333333a31.616 31.616 0 0 1-32-32z m256 0h192v192H405.33333333z m256 0h192v160c0 17.984-14.016 32-32 32H661.33333333z" /></svg>