<?xml version="1.0" standalone="no"?><!DOCTYPE svg PUBLIC "-//W3C//DTD SVG 1.1//EN" "http://www.w3.org/Graphics/SVG/1.1/DTD/svg11.dtd"><svg class="icon" width="64px" height="64.00px" viewBox="0 0 1024 1024" version="1.1" xmlns="http://www.w3.org/2000/svg"><path fill="#2c2c2c" d="M692.26 882.789H331.71v-30.69a563.314 563.314 0 0 1 48.088-14.832c16.2-4.279 33.657-7.758 52.396-10.638V196.288H295.459l-57.244 151.538h-26.981c-2.168-14.118-3.964-30.234-5.42-48.231-1.453-17.94-2.68-36.309-3.793-55.104-1.112-18.598-1.968-37.08-2.652-55.02-0.743-17.94-1.113-34.112-1.113-48.26h627.49c0 14.148-0.4 30.09-1.113 47.69-0.742 17.655-1.655 35.852-2.767 54.563s-2.139 37.078-3.251 55.104c-1.084 17.998-2.71 34.484-4.907 49.287H785.3l-56.759-151.538H592.89v630.368c18.71 3.566 36.223 7.074 52.367 10.639 16.229 3.508 31.86 8.415 47.004 14.831v30.634z" /></svg>